<svg width="52" height="52" viewBox="0 0 52 52" fill="none" xmlns="http://www.w3.org/2000/svg">
<rect width="52" height="52" rx="26" fill="#CAFF33"/>
<path fill-rule="evenodd" clip-rule="evenodd" d="M15.5 18.5C15.5 16.8431 16.8431 15.5 18.5 15.5H19.8716C20.732 15.5 21.482 16.0856 21.6906 16.9202L22.7964 21.3434C22.9794 22.0753 22.7059 22.8455 22.1024 23.2982L20.8088 24.2684C20.6745 24.3691 20.6453 24.5167 20.683 24.6197C21.8185 27.7195 24.2805 30.1815 27.3803 31.317C27.4833 31.3547 27.6309 31.3255 27.7316 31.1912L28.7018 29.8976C29.1545 29.2941 29.9247 29.0206 30.6566 29.2036L35.0798 30.3094C35.9144 30.518 36.5 31.268 36.5 32.1284V33.5C36.5 35.1569 35.1569 36.5 33.5 36.5H31.25C22.5515 36.5 15.5 29.4485 15.5 20.75V18.5Z" fill="#262626"/>
</svg>
